<mxfile host="Electron" modified="2024-07-09T06:09:11.671Z" agent="Mozilla/5.0 (X11; Linux x86_64) AppleWebKit/537.36 (KHTML, like Gecko) draw.io/24.6.4 Chrome/124.0.6367.243 Electron/30.1.2 Safari/537.36" etag="W4IsavupbmhrPp2Eehcy" version="24.6.4" type="device">
  <diagram name="Seite-1" id="aBlJ-mU0iKs_j3JmwUiF">
    <mxGraphModel dx="481" dy="287" grid="1" gridSize="10" guides="1" tooltips="1" connect="1" arrows="1" fold="1" page="1" pageScale="1" pageWidth="827" pageHeight="1169" math="0" shadow="0">
      <root>
        <mxCell id="0" />
        <mxCell id="1" parent="0" />
        <mxCell id="dpYt7c4uCdBiY0Gb-pTL-1" value="1" style="text;html=1;align=center;verticalAlign=middle;whiteSpace=wrap;rounded=0;" parent="1" vertex="1">
          <mxGeometry x="40" y="110" width="20" height="20" as="geometry" />
        </mxCell>
        <mxCell id="dpYt7c4uCdBiY0Gb-pTL-2" value="2" style="text;html=1;align=center;verticalAlign=middle;whiteSpace=wrap;rounded=0;" parent="1" vertex="1">
          <mxGeometry x="60" y="110" width="20" height="20" as="geometry" />
        </mxCell>
        <mxCell id="dpYt7c4uCdBiY0Gb-pTL-3" value="3" style="text;html=1;align=center;verticalAlign=middle;whiteSpace=wrap;rounded=0;" parent="1" vertex="1">
          <mxGeometry x="80" y="110" width="20" height="20" as="geometry" />
        </mxCell>
        <mxCell id="dpYt7c4uCdBiY0Gb-pTL-4" value="4" style="text;html=1;align=center;verticalAlign=middle;whiteSpace=wrap;rounded=0;" parent="1" vertex="1">
          <mxGeometry x="40" y="130" width="20" height="20" as="geometry" />
        </mxCell>
        <mxCell id="dpYt7c4uCdBiY0Gb-pTL-5" value="5" style="text;html=1;align=center;verticalAlign=middle;whiteSpace=wrap;rounded=0;" parent="1" vertex="1">
          <mxGeometry x="60" y="130" width="20" height="20" as="geometry" />
        </mxCell>
        <mxCell id="dpYt7c4uCdBiY0Gb-pTL-6" value="6" style="text;html=1;align=center;verticalAlign=middle;whiteSpace=wrap;rounded=0;" parent="1" vertex="1">
          <mxGeometry x="80" y="130" width="20" height="20" as="geometry" />
        </mxCell>
        <mxCell id="dpYt7c4uCdBiY0Gb-pTL-7" value="7" style="text;html=1;align=center;verticalAlign=middle;whiteSpace=wrap;rounded=0;" parent="1" vertex="1">
          <mxGeometry x="40" y="150" width="20" height="20" as="geometry" />
        </mxCell>
        <mxCell id="dpYt7c4uCdBiY0Gb-pTL-8" value="8" style="text;html=1;align=center;verticalAlign=middle;whiteSpace=wrap;rounded=0;" parent="1" vertex="1">
          <mxGeometry x="60" y="150" width="20" height="20" as="geometry" />
        </mxCell>
        <mxCell id="dpYt7c4uCdBiY0Gb-pTL-9" value="9" style="text;html=1;align=center;verticalAlign=middle;whiteSpace=wrap;rounded=0;" parent="1" vertex="1">
          <mxGeometry x="80" y="150" width="20" height="20" as="geometry" />
        </mxCell>
        <mxCell id="dpYt7c4uCdBiY0Gb-pTL-10" value="" style="shape=flexArrow;endArrow=classic;html=1;rounded=0;" parent="1" edge="1">
          <mxGeometry width="50" height="50" relative="1" as="geometry">
            <mxPoint x="120" y="140" as="sourcePoint" />
            <mxPoint x="160" y="140" as="targetPoint" />
          </mxGeometry>
        </mxCell>
        <mxCell id="dpYt7c4uCdBiY0Gb-pTL-11" value="" style="endArrow=none;html=1;rounded=0;curved=1;" parent="1" edge="1">
          <mxGeometry width="50" height="50" relative="1" as="geometry">
            <mxPoint x="40" y="170" as="sourcePoint" />
            <mxPoint x="40" y="110" as="targetPoint" />
            <Array as="points">
              <mxPoint x="30" y="140" />
            </Array>
          </mxGeometry>
        </mxCell>
        <mxCell id="dpYt7c4uCdBiY0Gb-pTL-12" value="" style="endArrow=none;html=1;rounded=0;curved=1;" parent="1" edge="1">
          <mxGeometry width="50" height="50" relative="1" as="geometry">
            <mxPoint x="100" y="170" as="sourcePoint" />
            <mxPoint x="100" y="110" as="targetPoint" />
            <Array as="points">
              <mxPoint x="110" y="140" />
            </Array>
          </mxGeometry>
        </mxCell>
        <mxCell id="dpYt7c4uCdBiY0Gb-pTL-13" value="0" style="text;html=1;align=center;verticalAlign=middle;whiteSpace=wrap;rounded=0;" parent="1" vertex="1">
          <mxGeometry x="180" y="110" width="20" height="20" as="geometry" />
        </mxCell>
        <mxCell id="dpYt7c4uCdBiY0Gb-pTL-14" value="1" style="text;html=1;align=center;verticalAlign=middle;whiteSpace=wrap;rounded=0;" parent="1" vertex="1">
          <mxGeometry x="200" y="110" width="20" height="20" as="geometry" />
        </mxCell>
        <mxCell id="dpYt7c4uCdBiY0Gb-pTL-15" value="0" style="text;html=1;align=center;verticalAlign=middle;whiteSpace=wrap;rounded=0;" parent="1" vertex="1">
          <mxGeometry x="220" y="110" width="20" height="20" as="geometry" />
        </mxCell>
        <mxCell id="dpYt7c4uCdBiY0Gb-pTL-16" value="0" style="text;html=1;align=center;verticalAlign=middle;whiteSpace=wrap;rounded=0;" parent="1" vertex="1">
          <mxGeometry x="180" y="130" width="20" height="20" as="geometry" />
        </mxCell>
        <mxCell id="dpYt7c4uCdBiY0Gb-pTL-17" value="0" style="text;html=1;align=center;verticalAlign=middle;whiteSpace=wrap;rounded=0;" parent="1" vertex="1">
          <mxGeometry x="200" y="130" width="20" height="20" as="geometry" />
        </mxCell>
        <mxCell id="dpYt7c4uCdBiY0Gb-pTL-18" value="1" style="text;html=1;align=center;verticalAlign=middle;whiteSpace=wrap;rounded=0;" parent="1" vertex="1">
          <mxGeometry x="220" y="130" width="20" height="20" as="geometry" />
        </mxCell>
        <mxCell id="dpYt7c4uCdBiY0Gb-pTL-19" value="1" style="text;html=1;align=center;verticalAlign=middle;whiteSpace=wrap;rounded=0;" parent="1" vertex="1">
          <mxGeometry x="180" y="150" width="20" height="20" as="geometry" />
        </mxCell>
        <mxCell id="dpYt7c4uCdBiY0Gb-pTL-20" value="0" style="text;html=1;align=center;verticalAlign=middle;whiteSpace=wrap;rounded=0;" parent="1" vertex="1">
          <mxGeometry x="200" y="150" width="20" height="20" as="geometry" />
        </mxCell>
        <mxCell id="dpYt7c4uCdBiY0Gb-pTL-21" value="0" style="text;html=1;align=center;verticalAlign=middle;whiteSpace=wrap;rounded=0;" parent="1" vertex="1">
          <mxGeometry x="220" y="150" width="20" height="20" as="geometry" />
        </mxCell>
        <mxCell id="dpYt7c4uCdBiY0Gb-pTL-22" value="" style="endArrow=none;html=1;rounded=0;curved=1;" parent="1" edge="1">
          <mxGeometry width="50" height="50" relative="1" as="geometry">
            <mxPoint x="180" y="170" as="sourcePoint" />
            <mxPoint x="180" y="110" as="targetPoint" />
            <Array as="points">
              <mxPoint x="170" y="140" />
            </Array>
          </mxGeometry>
        </mxCell>
        <mxCell id="dpYt7c4uCdBiY0Gb-pTL-23" value="" style="endArrow=none;html=1;rounded=0;curved=1;" parent="1" edge="1">
          <mxGeometry width="50" height="50" relative="1" as="geometry">
            <mxPoint x="240" y="170" as="sourcePoint" />
            <mxPoint x="240" y="110" as="targetPoint" />
            <Array as="points">
              <mxPoint x="250" y="140" />
            </Array>
          </mxGeometry>
        </mxCell>
        <mxCell id="dpYt7c4uCdBiY0Gb-pTL-24" value="P" style="text;html=1;align=center;verticalAlign=middle;whiteSpace=wrap;rounded=0;" parent="1" vertex="1">
          <mxGeometry x="180" y="80" width="60" height="30" as="geometry" />
        </mxCell>
        <mxCell id="dpYt7c4uCdBiY0Gb-pTL-25" value="1" style="text;html=1;align=center;verticalAlign=middle;whiteSpace=wrap;rounded=0;" parent="1" vertex="1">
          <mxGeometry x="280" y="110" width="20" height="20" as="geometry" />
        </mxCell>
        <mxCell id="dpYt7c4uCdBiY0Gb-pTL-26" value="0" style="text;html=1;align=center;verticalAlign=middle;whiteSpace=wrap;rounded=0;" parent="1" vertex="1">
          <mxGeometry x="300" y="110" width="20" height="20" as="geometry" />
        </mxCell>
        <mxCell id="dpYt7c4uCdBiY0Gb-pTL-27" value="0" style="text;html=1;align=center;verticalAlign=middle;whiteSpace=wrap;rounded=0;" parent="1" vertex="1">
          <mxGeometry x="320" y="110" width="20" height="20" as="geometry" />
        </mxCell>
        <mxCell id="dpYt7c4uCdBiY0Gb-pTL-28" value="1/7" style="text;html=1;align=center;verticalAlign=middle;whiteSpace=wrap;rounded=0;" parent="1" vertex="1">
          <mxGeometry x="280" y="130" width="20" height="20" as="geometry" />
        </mxCell>
        <mxCell id="dpYt7c4uCdBiY0Gb-pTL-29" value="1" style="text;html=1;align=center;verticalAlign=middle;whiteSpace=wrap;rounded=0;" parent="1" vertex="1">
          <mxGeometry x="300" y="130" width="20" height="20" as="geometry" />
        </mxCell>
        <mxCell id="dpYt7c4uCdBiY0Gb-pTL-30" value="0" style="text;html=1;align=center;verticalAlign=middle;whiteSpace=wrap;rounded=0;" parent="1" vertex="1">
          <mxGeometry x="320" y="130" width="20" height="20" as="geometry" />
        </mxCell>
        <mxCell id="dpYt7c4uCdBiY0Gb-pTL-31" value="4/7" style="text;html=1;align=center;verticalAlign=middle;whiteSpace=wrap;rounded=0;" parent="1" vertex="1">
          <mxGeometry x="280" y="150" width="20" height="20" as="geometry" />
        </mxCell>
        <mxCell id="dpYt7c4uCdBiY0Gb-pTL-32" value="1/2" style="text;html=1;align=center;verticalAlign=middle;whiteSpace=wrap;rounded=0;" parent="1" vertex="1">
          <mxGeometry x="300" y="150" width="20" height="20" as="geometry" />
        </mxCell>
        <mxCell id="dpYt7c4uCdBiY0Gb-pTL-33" value="1" style="text;html=1;align=center;verticalAlign=middle;whiteSpace=wrap;rounded=0;" parent="1" vertex="1">
          <mxGeometry x="320" y="150" width="20" height="20" as="geometry" />
        </mxCell>
        <mxCell id="dpYt7c4uCdBiY0Gb-pTL-34" value="" style="endArrow=none;html=1;rounded=0;curved=1;" parent="1" edge="1">
          <mxGeometry width="50" height="50" relative="1" as="geometry">
            <mxPoint x="280" y="170" as="sourcePoint" />
            <mxPoint x="280" y="110" as="targetPoint" />
            <Array as="points">
              <mxPoint x="270" y="140" />
            </Array>
          </mxGeometry>
        </mxCell>
        <mxCell id="dpYt7c4uCdBiY0Gb-pTL-35" value="" style="endArrow=none;html=1;rounded=0;curved=1;" parent="1" edge="1">
          <mxGeometry width="50" height="50" relative="1" as="geometry">
            <mxPoint x="340" y="170" as="sourcePoint" />
            <mxPoint x="340" y="110" as="targetPoint" />
            <Array as="points">
              <mxPoint x="350" y="140" />
            </Array>
          </mxGeometry>
        </mxCell>
        <mxCell id="dpYt7c4uCdBiY0Gb-pTL-36" value="L" style="text;html=1;align=center;verticalAlign=middle;whiteSpace=wrap;rounded=0;" parent="1" vertex="1">
          <mxGeometry x="280" y="80" width="60" height="30" as="geometry" />
        </mxCell>
        <mxCell id="dpYt7c4uCdBiY0Gb-pTL-37" value="7" style="text;html=1;align=center;verticalAlign=middle;whiteSpace=wrap;rounded=0;" parent="1" vertex="1">
          <mxGeometry x="390" y="110" width="20" height="20" as="geometry" />
        </mxCell>
        <mxCell id="dpYt7c4uCdBiY0Gb-pTL-38" value="8" style="text;html=1;align=center;verticalAlign=middle;whiteSpace=wrap;rounded=0;" parent="1" vertex="1">
          <mxGeometry x="420" y="110" width="20" height="20" as="geometry" />
        </mxCell>
        <mxCell id="dpYt7c4uCdBiY0Gb-pTL-39" value="9" style="text;html=1;align=center;verticalAlign=middle;whiteSpace=wrap;rounded=0;" parent="1" vertex="1">
          <mxGeometry x="450" y="110" width="20" height="20" as="geometry" />
        </mxCell>
        <mxCell id="dpYt7c4uCdBiY0Gb-pTL-40" value="0" style="text;html=1;align=center;verticalAlign=middle;whiteSpace=wrap;rounded=0;" parent="1" vertex="1">
          <mxGeometry x="390" y="130" width="20" height="20" as="geometry" />
        </mxCell>
        <mxCell id="dpYt7c4uCdBiY0Gb-pTL-41" value="6/7" style="text;html=1;align=center;verticalAlign=middle;whiteSpace=wrap;rounded=0;" parent="1" vertex="1">
          <mxGeometry x="420" y="130" width="20" height="20" as="geometry" />
        </mxCell>
        <mxCell id="dpYt7c4uCdBiY0Gb-pTL-42" value="12/7" style="text;html=1;align=center;verticalAlign=middle;whiteSpace=wrap;rounded=0;" parent="1" vertex="1">
          <mxGeometry x="450" y="130" width="20" height="20" as="geometry" />
        </mxCell>
        <mxCell id="dpYt7c4uCdBiY0Gb-pTL-43" value="0" style="text;html=1;align=center;verticalAlign=middle;whiteSpace=wrap;rounded=0;" parent="1" vertex="1">
          <mxGeometry x="390" y="150" width="20" height="20" as="geometry" />
        </mxCell>
        <mxCell id="dpYt7c4uCdBiY0Gb-pTL-44" value="0" style="text;html=1;align=center;verticalAlign=middle;whiteSpace=wrap;rounded=0;" parent="1" vertex="1">
          <mxGeometry x="420" y="150" width="20" height="20" as="geometry" />
        </mxCell>
        <mxCell id="dpYt7c4uCdBiY0Gb-pTL-45" value="0" style="text;html=1;align=center;verticalAlign=middle;whiteSpace=wrap;rounded=0;" parent="1" vertex="1">
          <mxGeometry x="450" y="150" width="20" height="20" as="geometry" />
        </mxCell>
        <mxCell id="dpYt7c4uCdBiY0Gb-pTL-46" value="" style="endArrow=none;html=1;rounded=0;curved=1;" parent="1" edge="1">
          <mxGeometry width="50" height="50" relative="1" as="geometry">
            <mxPoint x="380" y="170" as="sourcePoint" />
            <mxPoint x="380" y="110" as="targetPoint" />
            <Array as="points">
              <mxPoint x="370" y="140" />
            </Array>
          </mxGeometry>
        </mxCell>
        <mxCell id="dpYt7c4uCdBiY0Gb-pTL-47" value="" style="endArrow=none;html=1;rounded=0;curved=1;" parent="1" edge="1">
          <mxGeometry width="50" height="50" relative="1" as="geometry">
            <mxPoint x="480" y="170" as="sourcePoint" />
            <mxPoint x="480" y="110" as="targetPoint" />
            <Array as="points">
              <mxPoint x="490" y="140" />
            </Array>
          </mxGeometry>
        </mxCell>
        <mxCell id="dpYt7c4uCdBiY0Gb-pTL-48" value="U" style="text;html=1;align=center;verticalAlign=middle;whiteSpace=wrap;rounded=0;" parent="1" vertex="1">
          <mxGeometry x="380" y="80" width="60" height="30" as="geometry" />
        </mxCell>
        <mxCell id="dpYt7c4uCdBiY0Gb-pTL-49" value="L = I + L&lt;sub&gt;A&lt;/sub&gt;" style="text;html=1;align=left;verticalAlign=middle;whiteSpace=wrap;rounded=0;" parent="1" vertex="1">
          <mxGeometry x="40" y="230" width="60" height="20" as="geometry" />
        </mxCell>
        <mxCell id="dpYt7c4uCdBiY0Gb-pTL-50" value="U = D&lt;sub&gt;A&lt;/sub&gt;&amp;nbsp;+ U&lt;sub&gt;A&lt;/sub&gt;" style="text;html=1;align=left;verticalAlign=middle;whiteSpace=wrap;rounded=0;" parent="1" vertex="1">
          <mxGeometry x="40" y="250" width="80" height="20" as="geometry" />
        </mxCell>
        <mxCell id="dpYt7c4uCdBiY0Gb-pTL-52" value="for k = 1 : n − 1 do" style="text;html=1;align=left;verticalAlign=middle;whiteSpace=wrap;rounded=0;" parent="1" vertex="1">
          <mxGeometry x="40" y="270" width="130" height="20" as="geometry" />
        </mxCell>
        <mxCell id="dpYt7c4uCdBiY0Gb-pTL-53" value="for i&amp;nbsp;∈ {i &amp;gt; k | l&lt;sub&gt;ik&lt;/sub&gt;&amp;nbsp;≠ 0} do" style="text;html=1;align=left;verticalAlign=middle;whiteSpace=wrap;rounded=0;" parent="1" vertex="1">
          <mxGeometry x="60" y="290" width="130" height="20" as="geometry" />
        </mxCell>
        <mxCell id="dpYt7c4uCdBiY0Gb-pTL-55" value="l&lt;sub&gt;ik&lt;/sub&gt; = l&lt;sub&gt;ik&lt;/sub&gt;/u&lt;sub&gt;kk&lt;/sub&gt;" style="text;html=1;align=left;verticalAlign=middle;whiteSpace=wrap;rounded=0;" parent="1" vertex="1">
          <mxGeometry x="80" y="310" width="70" height="20" as="geometry" />
        </mxCell>
        <mxCell id="dpYt7c4uCdBiY0Gb-pTL-56" value="U&lt;sub&gt;i,i:n&lt;/sub&gt; = U&lt;sub&gt;i,i:n&lt;/sub&gt; - U&lt;sub&gt;k,i:n&lt;/sub&gt; l&lt;sub&gt;ik&lt;/sub&gt;" style="text;html=1;align=left;verticalAlign=middle;whiteSpace=wrap;rounded=0;" parent="1" vertex="1">
          <mxGeometry x="80" y="330" width="140" height="20" as="geometry" />
        </mxCell>
        <mxCell id="dpYt7c4uCdBiY0Gb-pTL-57" value="endfor" style="text;html=1;align=left;verticalAlign=middle;whiteSpace=wrap;rounded=0;" parent="1" vertex="1">
          <mxGeometry x="60" y="350" width="40" height="20" as="geometry" />
        </mxCell>
        <mxCell id="dpYt7c4uCdBiY0Gb-pTL-58" value="for j&amp;nbsp;∈ {j &amp;gt; k | u&lt;sub&gt;kj&lt;/sub&gt;&amp;nbsp;≠ 0} do" style="text;html=1;align=left;verticalAlign=middle;whiteSpace=wrap;rounded=0;" parent="1" vertex="1">
          <mxGeometry x="60" y="370" width="130" height="20" as="geometry" />
        </mxCell>
        <mxCell id="dpYt7c4uCdBiY0Gb-pTL-60" value="L&lt;sub&gt;j+1:n,j&lt;/sub&gt; = L&lt;sub&gt;j+1:n,j&lt;/sub&gt;&amp;nbsp;- L&lt;sub&gt;j+1:n,k&lt;/sub&gt;&amp;nbsp;u&lt;sub&gt;kj&lt;/sub&gt;" style="text;html=1;align=left;verticalAlign=middle;whiteSpace=wrap;rounded=0;" parent="1" vertex="1">
          <mxGeometry x="80" y="390" width="160" height="20" as="geometry" />
        </mxCell>
        <mxCell id="dpYt7c4uCdBiY0Gb-pTL-61" value="endfor" style="text;html=1;align=left;verticalAlign=middle;whiteSpace=wrap;rounded=0;" parent="1" vertex="1">
          <mxGeometry x="60" y="410" width="40" height="20" as="geometry" />
        </mxCell>
        <mxCell id="dpYt7c4uCdBiY0Gb-pTL-62" value="endfor" style="text;html=1;align=left;verticalAlign=middle;whiteSpace=wrap;rounded=0;" parent="1" vertex="1">
          <mxGeometry x="40" y="430" width="40" height="20" as="geometry" />
        </mxCell>
        <mxCell id="dpYt7c4uCdBiY0Gb-pTL-63" value="Initialisiere L mit der, Identitätsmatrix und dem unteren Dreiecksteil von A" style="text;html=1;align=left;verticalAlign=middle;whiteSpace=wrap;rounded=0;fontSize=9;" parent="1" vertex="1">
          <mxGeometry x="240" y="230" width="300" height="20" as="geometry" />
        </mxCell>
        <mxCell id="dpYt7c4uCdBiY0Gb-pTL-65" value="Initialisiere U mit dem, Diagonalteil und dem unteren Dreiecksteil von A" style="text;html=1;align=left;verticalAlign=middle;whiteSpace=wrap;rounded=0;fontSize=9;" parent="1" vertex="1">
          <mxGeometry x="240" y="250" width="300" height="20" as="geometry" />
        </mxCell>
        <mxCell id="dpYt7c4uCdBiY0Gb-pTL-66" value="Iteriere über das Pivotelement k" style="text;html=1;align=left;verticalAlign=middle;whiteSpace=wrap;rounded=0;fontSize=9;" parent="1" vertex="1">
          <mxGeometry x="240" y="270" width="300" height="20" as="geometry" />
        </mxCell>
        <mxCell id="dpYt7c4uCdBiY0Gb-pTL-67" value="Für jedes Element l&lt;sub&gt;ik&lt;/sub&gt; welches nicht 0 ist:" style="text;html=1;align=left;verticalAlign=middle;whiteSpace=wrap;rounded=0;fontSize=9;" parent="1" vertex="1">
          <mxGeometry x="240" y="290" width="180" height="20" as="geometry" />
        </mxCell>
        <mxCell id="dpYt7c4uCdBiY0Gb-pTL-68" value="Setze l&lt;sub&gt;ik&lt;/sub&gt; gleich l&lt;sub&gt;ik&lt;/sub&gt;/u&lt;sub&gt;kk&lt;/sub&gt;" style="text;html=1;align=left;verticalAlign=middle;whiteSpace=wrap;rounded=0;fontSize=9;" parent="1" vertex="1">
          <mxGeometry x="260" y="310" width="90" height="20" as="geometry" />
        </mxCell>
        <mxCell id="dpYt7c4uCdBiY0Gb-pTL-69" value="Update die Zeile U&lt;sub&gt;i&lt;/sub&gt; mit U&lt;sub&gt;k&lt;/sub&gt;*l&lt;sub&gt;ik&lt;/sub&gt;&amp;nbsp;, Update die nächste Zeile indem die Vorherige angewand wird" style="text;html=1;align=left;verticalAlign=middle;whiteSpace=wrap;rounded=0;fontSize=9;" parent="1" vertex="1">
          <mxGeometry x="260" y="330" width="380" height="20" as="geometry" />
        </mxCell>
        <mxCell id="dpYt7c4uCdBiY0Gb-pTL-70" value="Für jedes Element u&lt;sub&gt;kj&lt;/sub&gt; welches nicht 0 ist:" style="text;html=1;align=left;verticalAlign=middle;whiteSpace=wrap;rounded=0;fontSize=9;" parent="1" vertex="1">
          <mxGeometry x="240" y="370" width="180" height="20" as="geometry" />
        </mxCell>
        <mxCell id="dpYt7c4uCdBiY0Gb-pTL-71" value="Update die Spalte L&lt;sub&gt;j&lt;/sub&gt; mit u&lt;sub&gt;kj&lt;/sub&gt;" style="text;html=1;align=left;verticalAlign=middle;whiteSpace=wrap;rounded=0;fontSize=9;" parent="1" vertex="1">
          <mxGeometry x="260" y="390" width="140" height="20" as="geometry" />
        </mxCell>
        <mxCell id="dpYt7c4uCdBiY0Gb-pTL-72" value="Sage:" style="text;html=1;align=left;verticalAlign=middle;whiteSpace=wrap;rounded=0;" parent="1" vertex="1">
          <mxGeometry x="40" y="60" width="40" height="20" as="geometry" />
        </mxCell>
        <mxCell id="dpYt7c4uCdBiY0Gb-pTL-73" value="1" style="text;html=1;align=center;verticalAlign=middle;whiteSpace=wrap;rounded=0;" parent="1" vertex="1">
          <mxGeometry x="40" y="480" width="20" height="20" as="geometry" />
        </mxCell>
        <mxCell id="dpYt7c4uCdBiY0Gb-pTL-74" value="2" style="text;html=1;align=center;verticalAlign=middle;whiteSpace=wrap;rounded=0;" parent="1" vertex="1">
          <mxGeometry x="60" y="480" width="20" height="20" as="geometry" />
        </mxCell>
        <mxCell id="dpYt7c4uCdBiY0Gb-pTL-75" value="3" style="text;html=1;align=center;verticalAlign=middle;whiteSpace=wrap;rounded=0;" parent="1" vertex="1">
          <mxGeometry x="80" y="480" width="20" height="20" as="geometry" />
        </mxCell>
        <mxCell id="dpYt7c4uCdBiY0Gb-pTL-76" value="4" style="text;html=1;align=center;verticalAlign=middle;whiteSpace=wrap;rounded=0;" parent="1" vertex="1">
          <mxGeometry x="40" y="500" width="20" height="20" as="geometry" />
        </mxCell>
        <mxCell id="dpYt7c4uCdBiY0Gb-pTL-77" value="5" style="text;html=1;align=center;verticalAlign=middle;whiteSpace=wrap;rounded=0;" parent="1" vertex="1">
          <mxGeometry x="60" y="500" width="20" height="20" as="geometry" />
        </mxCell>
        <mxCell id="dpYt7c4uCdBiY0Gb-pTL-78" value="6" style="text;html=1;align=center;verticalAlign=middle;whiteSpace=wrap;rounded=0;" parent="1" vertex="1">
          <mxGeometry x="80" y="500" width="20" height="20" as="geometry" />
        </mxCell>
        <mxCell id="dpYt7c4uCdBiY0Gb-pTL-79" value="7" style="text;html=1;align=center;verticalAlign=middle;whiteSpace=wrap;rounded=0;" parent="1" vertex="1">
          <mxGeometry x="40" y="520" width="20" height="20" as="geometry" />
        </mxCell>
        <mxCell id="dpYt7c4uCdBiY0Gb-pTL-80" value="8" style="text;html=1;align=center;verticalAlign=middle;whiteSpace=wrap;rounded=0;" parent="1" vertex="1">
          <mxGeometry x="60" y="520" width="20" height="20" as="geometry" />
        </mxCell>
        <mxCell id="dpYt7c4uCdBiY0Gb-pTL-81" value="9" style="text;html=1;align=center;verticalAlign=middle;whiteSpace=wrap;rounded=0;" parent="1" vertex="1">
          <mxGeometry x="80" y="520" width="20" height="20" as="geometry" />
        </mxCell>
        <mxCell id="dpYt7c4uCdBiY0Gb-pTL-83" value="" style="endArrow=none;html=1;rounded=0;curved=1;" parent="1" edge="1">
          <mxGeometry width="50" height="50" relative="1" as="geometry">
            <mxPoint x="40" y="540" as="sourcePoint" />
            <mxPoint x="40" y="480" as="targetPoint" />
            <Array as="points">
              <mxPoint x="30" y="510" />
            </Array>
          </mxGeometry>
        </mxCell>
        <mxCell id="dpYt7c4uCdBiY0Gb-pTL-84" value="" style="endArrow=none;html=1;rounded=0;curved=1;" parent="1" edge="1">
          <mxGeometry width="50" height="50" relative="1" as="geometry">
            <mxPoint x="100" y="540" as="sourcePoint" />
            <mxPoint x="100" y="480" as="targetPoint" />
            <Array as="points">
              <mxPoint x="110" y="510" />
            </Array>
          </mxGeometry>
        </mxCell>
        <mxCell id="dpYt7c4uCdBiY0Gb-pTL-121" value="Ablauf" style="text;html=1;align=left;verticalAlign=middle;whiteSpace=wrap;rounded=0;" parent="1" vertex="1">
          <mxGeometry x="120" y="480" width="40" height="20" as="geometry" />
        </mxCell>
        <mxCell id="dpYt7c4uCdBiY0Gb-pTL-153" value="A:" style="text;html=1;align=left;verticalAlign=middle;whiteSpace=wrap;rounded=0;" parent="1" vertex="1">
          <mxGeometry x="160" y="600" width="40" height="20" as="geometry" />
        </mxCell>
        <mxCell id="dpYt7c4uCdBiY0Gb-pTL-157" value="1" style="text;html=1;align=center;verticalAlign=middle;whiteSpace=wrap;rounded=0;" parent="1" vertex="1">
          <mxGeometry x="200" y="660" width="20" height="20" as="geometry" />
        </mxCell>
        <mxCell id="dpYt7c4uCdBiY0Gb-pTL-158" value="0" style="text;html=1;align=center;verticalAlign=middle;whiteSpace=wrap;rounded=0;" parent="1" vertex="1">
          <mxGeometry x="220" y="660" width="20" height="20" as="geometry" />
        </mxCell>
        <mxCell id="dpYt7c4uCdBiY0Gb-pTL-159" value="0" style="text;html=1;align=center;verticalAlign=middle;whiteSpace=wrap;rounded=0;" parent="1" vertex="1">
          <mxGeometry x="240" y="660" width="20" height="20" as="geometry" />
        </mxCell>
        <mxCell id="dpYt7c4uCdBiY0Gb-pTL-160" value="4" style="text;html=1;align=center;verticalAlign=middle;whiteSpace=wrap;rounded=0;" parent="1" vertex="1">
          <mxGeometry x="200" y="680" width="20" height="20" as="geometry" />
        </mxCell>
        <mxCell id="dpYt7c4uCdBiY0Gb-pTL-161" value="1" style="text;html=1;align=center;verticalAlign=middle;whiteSpace=wrap;rounded=0;" parent="1" vertex="1">
          <mxGeometry x="220" y="680" width="20" height="20" as="geometry" />
        </mxCell>
        <mxCell id="dpYt7c4uCdBiY0Gb-pTL-162" value="0" style="text;html=1;align=center;verticalAlign=middle;whiteSpace=wrap;rounded=0;" parent="1" vertex="1">
          <mxGeometry x="240" y="680" width="20" height="20" as="geometry" />
        </mxCell>
        <mxCell id="dpYt7c4uCdBiY0Gb-pTL-163" value="7" style="text;html=1;align=center;verticalAlign=middle;whiteSpace=wrap;rounded=0;" parent="1" vertex="1">
          <mxGeometry x="200" y="700" width="20" height="20" as="geometry" />
        </mxCell>
        <mxCell id="dpYt7c4uCdBiY0Gb-pTL-164" value="8" style="text;html=1;align=center;verticalAlign=middle;whiteSpace=wrap;rounded=0;" parent="1" vertex="1">
          <mxGeometry x="220" y="700" width="20" height="20" as="geometry" />
        </mxCell>
        <mxCell id="dpYt7c4uCdBiY0Gb-pTL-165" value="1" style="text;html=1;align=center;verticalAlign=middle;whiteSpace=wrap;rounded=0;" parent="1" vertex="1">
          <mxGeometry x="240" y="700" width="20" height="20" as="geometry" />
        </mxCell>
        <mxCell id="dpYt7c4uCdBiY0Gb-pTL-166" value="L:" style="text;html=1;align=left;verticalAlign=middle;whiteSpace=wrap;rounded=0;" parent="1" vertex="1">
          <mxGeometry x="160" y="680" width="40" height="20" as="geometry" />
        </mxCell>
        <mxCell id="dpYt7c4uCdBiY0Gb-pTL-167" value="1" style="text;html=1;align=center;verticalAlign=middle;whiteSpace=wrap;rounded=0;" parent="1" vertex="1">
          <mxGeometry x="200" y="740" width="20" height="20" as="geometry" />
        </mxCell>
        <mxCell id="dpYt7c4uCdBiY0Gb-pTL-168" value="2" style="text;html=1;align=center;verticalAlign=middle;whiteSpace=wrap;rounded=0;" parent="1" vertex="1">
          <mxGeometry x="220" y="740" width="20" height="20" as="geometry" />
        </mxCell>
        <mxCell id="dpYt7c4uCdBiY0Gb-pTL-169" value="3" style="text;html=1;align=center;verticalAlign=middle;whiteSpace=wrap;rounded=0;" parent="1" vertex="1">
          <mxGeometry x="240" y="740" width="20" height="20" as="geometry" />
        </mxCell>
        <mxCell id="dpYt7c4uCdBiY0Gb-pTL-170" value="0" style="text;html=1;align=center;verticalAlign=middle;whiteSpace=wrap;rounded=0;" parent="1" vertex="1">
          <mxGeometry x="200" y="760" width="20" height="20" as="geometry" />
        </mxCell>
        <mxCell id="dpYt7c4uCdBiY0Gb-pTL-171" value="5" style="text;html=1;align=center;verticalAlign=middle;whiteSpace=wrap;rounded=0;" parent="1" vertex="1">
          <mxGeometry x="220" y="760" width="20" height="20" as="geometry" />
        </mxCell>
        <mxCell id="dpYt7c4uCdBiY0Gb-pTL-172" value="6" style="text;html=1;align=center;verticalAlign=middle;whiteSpace=wrap;rounded=0;" parent="1" vertex="1">
          <mxGeometry x="240" y="760" width="20" height="20" as="geometry" />
        </mxCell>
        <mxCell id="dpYt7c4uCdBiY0Gb-pTL-173" value="0" style="text;html=1;align=center;verticalAlign=middle;whiteSpace=wrap;rounded=0;" parent="1" vertex="1">
          <mxGeometry x="200" y="780" width="20" height="20" as="geometry" />
        </mxCell>
        <mxCell id="dpYt7c4uCdBiY0Gb-pTL-174" value="0" style="text;html=1;align=center;verticalAlign=middle;whiteSpace=wrap;rounded=0;" parent="1" vertex="1">
          <mxGeometry x="220" y="780" width="20" height="20" as="geometry" />
        </mxCell>
        <mxCell id="dpYt7c4uCdBiY0Gb-pTL-175" value="9" style="text;html=1;align=center;verticalAlign=middle;whiteSpace=wrap;rounded=0;" parent="1" vertex="1">
          <mxGeometry x="240" y="780" width="20" height="20" as="geometry" />
        </mxCell>
        <mxCell id="dpYt7c4uCdBiY0Gb-pTL-176" value="U:" style="text;html=1;align=left;verticalAlign=middle;whiteSpace=wrap;rounded=0;" parent="1" vertex="1">
          <mxGeometry x="160" y="760" width="40" height="20" as="geometry" />
        </mxCell>
        <mxCell id="dpYt7c4uCdBiY0Gb-pTL-183" value="" style="rounded=0;whiteSpace=wrap;html=1;fillColor=#1ba1e2;fontColor=#ffffff;strokeColor=none;" parent="1" vertex="1">
          <mxGeometry x="300" y="580" width="20" height="60" as="geometry" />
        </mxCell>
        <mxCell id="dpYt7c4uCdBiY0Gb-pTL-184" value="" style="rounded=0;whiteSpace=wrap;html=1;fillColor=#a20025;fontColor=#ffffff;strokeColor=none;" parent="1" vertex="1">
          <mxGeometry x="300" y="580" width="60" height="20" as="geometry" />
        </mxCell>
        <mxCell id="dpYt7c4uCdBiY0Gb-pTL-185" value="" style="rounded=0;whiteSpace=wrap;html=1;fillColor=#60a917;fontColor=#ffffff;strokeColor=none;" parent="1" vertex="1">
          <mxGeometry x="300" y="580" width="20" height="20" as="geometry" />
        </mxCell>
        <mxCell id="dpYt7c4uCdBiY0Gb-pTL-186" value="k = 1" style="text;html=1;align=left;verticalAlign=middle;whiteSpace=wrap;rounded=0;" parent="1" vertex="1">
          <mxGeometry x="300" y="480" width="40" height="20" as="geometry" />
        </mxCell>
        <mxCell id="dpYt7c4uCdBiY0Gb-pTL-187" value="I = [2,3]" style="text;html=1;align=left;verticalAlign=middle;whiteSpace=wrap;rounded=0;" parent="1" vertex="1">
          <mxGeometry x="300" y="500" width="60" height="20" as="geometry" />
        </mxCell>
        <mxCell id="dpYt7c4uCdBiY0Gb-pTL-188" value="j = [2,3]" style="text;html=1;align=left;verticalAlign=middle;whiteSpace=wrap;rounded=0;" parent="1" vertex="1">
          <mxGeometry x="300" y="520" width="60" height="20" as="geometry" />
        </mxCell>
        <mxCell id="dpYt7c4uCdBiY0Gb-pTL-189" value="1" style="text;html=1;align=center;verticalAlign=middle;whiteSpace=wrap;rounded=0;" parent="1" vertex="1">
          <mxGeometry x="300" y="580" width="20" height="20" as="geometry" />
        </mxCell>
        <mxCell id="dpYt7c4uCdBiY0Gb-pTL-190" value="2" style="text;html=1;align=center;verticalAlign=middle;whiteSpace=wrap;rounded=0;" parent="1" vertex="1">
          <mxGeometry x="320" y="580" width="20" height="20" as="geometry" />
        </mxCell>
        <mxCell id="dpYt7c4uCdBiY0Gb-pTL-191" value="3" style="text;html=1;align=center;verticalAlign=middle;whiteSpace=wrap;rounded=0;" parent="1" vertex="1">
          <mxGeometry x="340" y="580" width="20" height="20" as="geometry" />
        </mxCell>
        <mxCell id="dpYt7c4uCdBiY0Gb-pTL-192" value="4" style="text;html=1;align=center;verticalAlign=middle;whiteSpace=wrap;rounded=0;" parent="1" vertex="1">
          <mxGeometry x="300" y="600" width="20" height="20" as="geometry" />
        </mxCell>
        <mxCell id="dpYt7c4uCdBiY0Gb-pTL-193" value="5" style="text;html=1;align=center;verticalAlign=middle;whiteSpace=wrap;rounded=0;" parent="1" vertex="1">
          <mxGeometry x="320" y="600" width="20" height="20" as="geometry" />
        </mxCell>
        <mxCell id="dpYt7c4uCdBiY0Gb-pTL-194" value="6" style="text;html=1;align=center;verticalAlign=middle;whiteSpace=wrap;rounded=0;" parent="1" vertex="1">
          <mxGeometry x="340" y="600" width="20" height="20" as="geometry" />
        </mxCell>
        <mxCell id="dpYt7c4uCdBiY0Gb-pTL-195" value="7" style="text;html=1;align=center;verticalAlign=middle;whiteSpace=wrap;rounded=0;" parent="1" vertex="1">
          <mxGeometry x="300" y="620" width="20" height="20" as="geometry" />
        </mxCell>
        <mxCell id="dpYt7c4uCdBiY0Gb-pTL-196" value="8" style="text;html=1;align=center;verticalAlign=middle;whiteSpace=wrap;rounded=0;" parent="1" vertex="1">
          <mxGeometry x="320" y="620" width="20" height="20" as="geometry" />
        </mxCell>
        <mxCell id="dpYt7c4uCdBiY0Gb-pTL-197" value="9" style="text;html=1;align=center;verticalAlign=middle;whiteSpace=wrap;rounded=0;" parent="1" vertex="1">
          <mxGeometry x="340" y="620" width="20" height="20" as="geometry" />
        </mxCell>
        <mxCell id="dpYt7c4uCdBiY0Gb-pTL-199" value="1" style="text;html=1;align=center;verticalAlign=middle;whiteSpace=wrap;rounded=0;" parent="1" vertex="1">
          <mxGeometry x="300" y="660" width="20" height="20" as="geometry" />
        </mxCell>
        <mxCell id="dpYt7c4uCdBiY0Gb-pTL-200" value="0" style="text;html=1;align=center;verticalAlign=middle;whiteSpace=wrap;rounded=0;" parent="1" vertex="1">
          <mxGeometry x="320" y="660" width="20" height="20" as="geometry" />
        </mxCell>
        <mxCell id="dpYt7c4uCdBiY0Gb-pTL-201" value="0" style="text;html=1;align=center;verticalAlign=middle;whiteSpace=wrap;rounded=0;" parent="1" vertex="1">
          <mxGeometry x="340" y="660" width="20" height="20" as="geometry" />
        </mxCell>
        <mxCell id="dpYt7c4uCdBiY0Gb-pTL-202" value="4" style="text;html=1;align=center;verticalAlign=middle;whiteSpace=wrap;rounded=0;" parent="1" vertex="1">
          <mxGeometry x="300" y="680" width="20" height="20" as="geometry" />
        </mxCell>
        <mxCell id="dpYt7c4uCdBiY0Gb-pTL-203" value="1" style="text;html=1;align=center;verticalAlign=middle;whiteSpace=wrap;rounded=0;" parent="1" vertex="1">
          <mxGeometry x="320" y="680" width="20" height="20" as="geometry" />
        </mxCell>
        <mxCell id="dpYt7c4uCdBiY0Gb-pTL-204" value="0" style="text;html=1;align=center;verticalAlign=middle;whiteSpace=wrap;rounded=0;" parent="1" vertex="1">
          <mxGeometry x="340" y="680" width="20" height="20" as="geometry" />
        </mxCell>
        <mxCell id="dpYt7c4uCdBiY0Gb-pTL-205" value="7" style="text;html=1;align=center;verticalAlign=middle;whiteSpace=wrap;rounded=0;" parent="1" vertex="1">
          <mxGeometry x="300" y="700" width="20" height="20" as="geometry" />
        </mxCell>
        <mxCell id="dpYt7c4uCdBiY0Gb-pTL-206" value="-6" style="text;html=1;align=center;verticalAlign=middle;whiteSpace=wrap;rounded=0;" parent="1" vertex="1">
          <mxGeometry x="320" y="700" width="20" height="20" as="geometry" />
        </mxCell>
        <mxCell id="dpYt7c4uCdBiY0Gb-pTL-207" value="1" style="text;html=1;align=center;verticalAlign=middle;whiteSpace=wrap;rounded=0;" parent="1" vertex="1">
          <mxGeometry x="340" y="700" width="20" height="20" as="geometry" />
        </mxCell>
        <mxCell id="dpYt7c4uCdBiY0Gb-pTL-209" value="1" style="text;html=1;align=center;verticalAlign=middle;whiteSpace=wrap;rounded=0;" parent="1" vertex="1">
          <mxGeometry x="300" y="740" width="20" height="20" as="geometry" />
        </mxCell>
        <mxCell id="dpYt7c4uCdBiY0Gb-pTL-210" value="2" style="text;html=1;align=center;verticalAlign=middle;whiteSpace=wrap;rounded=0;" parent="1" vertex="1">
          <mxGeometry x="320" y="740" width="20" height="20" as="geometry" />
        </mxCell>
        <mxCell id="dpYt7c4uCdBiY0Gb-pTL-211" value="3" style="text;html=1;align=center;verticalAlign=middle;whiteSpace=wrap;rounded=0;" parent="1" vertex="1">
          <mxGeometry x="340" y="740" width="20" height="20" as="geometry" />
        </mxCell>
        <mxCell id="dpYt7c4uCdBiY0Gb-pTL-212" value="0" style="text;html=1;align=center;verticalAlign=middle;whiteSpace=wrap;rounded=0;" parent="1" vertex="1">
          <mxGeometry x="300" y="760" width="20" height="20" as="geometry" />
        </mxCell>
        <mxCell id="dpYt7c4uCdBiY0Gb-pTL-213" value="-3" style="text;html=1;align=center;verticalAlign=middle;whiteSpace=wrap;rounded=0;" parent="1" vertex="1">
          <mxGeometry x="320" y="760" width="20" height="20" as="geometry" />
        </mxCell>
        <mxCell id="dpYt7c4uCdBiY0Gb-pTL-214" value="-6" style="text;html=1;align=center;verticalAlign=middle;whiteSpace=wrap;rounded=0;" parent="1" vertex="1">
          <mxGeometry x="340" y="760" width="20" height="20" as="geometry" />
        </mxCell>
        <mxCell id="dpYt7c4uCdBiY0Gb-pTL-215" value="0" style="text;html=1;align=center;verticalAlign=middle;whiteSpace=wrap;rounded=0;" parent="1" vertex="1">
          <mxGeometry x="300" y="780" width="20" height="20" as="geometry" />
        </mxCell>
        <mxCell id="dpYt7c4uCdBiY0Gb-pTL-216" value="0" style="text;html=1;align=center;verticalAlign=middle;whiteSpace=wrap;rounded=0;" parent="1" vertex="1">
          <mxGeometry x="320" y="780" width="20" height="20" as="geometry" />
        </mxCell>
        <mxCell id="dpYt7c4uCdBiY0Gb-pTL-217" value="9" style="text;html=1;align=center;verticalAlign=middle;whiteSpace=wrap;rounded=0;" parent="1" vertex="1">
          <mxGeometry x="340" y="780" width="20" height="20" as="geometry" />
        </mxCell>
        <mxCell id="dpYt7c4uCdBiY0Gb-pTL-223" value="" style="endArrow=none;html=1;rounded=0;" parent="1" edge="1">
          <mxGeometry width="50" height="50" relative="1" as="geometry">
            <mxPoint x="280" y="880" as="sourcePoint" />
            <mxPoint x="280" y="480" as="targetPoint" />
          </mxGeometry>
        </mxCell>
        <mxCell id="dpYt7c4uCdBiY0Gb-pTL-225" value="1" style="text;html=1;align=center;verticalAlign=middle;whiteSpace=wrap;rounded=0;" parent="1" vertex="1">
          <mxGeometry x="200" y="580" width="20" height="20" as="geometry" />
        </mxCell>
        <mxCell id="dpYt7c4uCdBiY0Gb-pTL-226" value="2" style="text;html=1;align=center;verticalAlign=middle;whiteSpace=wrap;rounded=0;" parent="1" vertex="1">
          <mxGeometry x="220" y="580" width="20" height="20" as="geometry" />
        </mxCell>
        <mxCell id="dpYt7c4uCdBiY0Gb-pTL-227" value="3" style="text;html=1;align=center;verticalAlign=middle;whiteSpace=wrap;rounded=0;" parent="1" vertex="1">
          <mxGeometry x="240" y="580" width="20" height="20" as="geometry" />
        </mxCell>
        <mxCell id="dpYt7c4uCdBiY0Gb-pTL-228" value="4" style="text;html=1;align=center;verticalAlign=middle;whiteSpace=wrap;rounded=0;" parent="1" vertex="1">
          <mxGeometry x="200" y="600" width="20" height="20" as="geometry" />
        </mxCell>
        <mxCell id="dpYt7c4uCdBiY0Gb-pTL-229" value="5" style="text;html=1;align=center;verticalAlign=middle;whiteSpace=wrap;rounded=0;" parent="1" vertex="1">
          <mxGeometry x="220" y="600" width="20" height="20" as="geometry" />
        </mxCell>
        <mxCell id="dpYt7c4uCdBiY0Gb-pTL-230" value="6" style="text;html=1;align=center;verticalAlign=middle;whiteSpace=wrap;rounded=0;" parent="1" vertex="1">
          <mxGeometry x="240" y="600" width="20" height="20" as="geometry" />
        </mxCell>
        <mxCell id="dpYt7c4uCdBiY0Gb-pTL-231" value="7" style="text;html=1;align=center;verticalAlign=middle;whiteSpace=wrap;rounded=0;" parent="1" vertex="1">
          <mxGeometry x="200" y="620" width="20" height="20" as="geometry" />
        </mxCell>
        <mxCell id="dpYt7c4uCdBiY0Gb-pTL-232" value="8" style="text;html=1;align=center;verticalAlign=middle;whiteSpace=wrap;rounded=0;" parent="1" vertex="1">
          <mxGeometry x="220" y="620" width="20" height="20" as="geometry" />
        </mxCell>
        <mxCell id="dpYt7c4uCdBiY0Gb-pTL-233" value="9" style="text;html=1;align=center;verticalAlign=middle;whiteSpace=wrap;rounded=0;" parent="1" vertex="1">
          <mxGeometry x="240" y="620" width="20" height="20" as="geometry" />
        </mxCell>
        <mxCell id="dpYt7c4uCdBiY0Gb-pTL-234" value="Init" style="text;html=1;align=left;verticalAlign=middle;whiteSpace=wrap;rounded=0;" parent="1" vertex="1">
          <mxGeometry x="200" y="480" width="40" height="20" as="geometry" />
        </mxCell>
        <mxCell id="dpYt7c4uCdBiY0Gb-pTL-235" value="A" style="text;html=1;align=center;verticalAlign=middle;whiteSpace=wrap;rounded=0;" parent="1" vertex="1">
          <mxGeometry x="40" y="80" width="60" height="30" as="geometry" />
        </mxCell>
        <mxCell id="dpYt7c4uCdBiY0Gb-pTL-236" value="A&lt;sub&gt;[i][j]&lt;/sub&gt;&amp;nbsp;" style="text;html=1;align=center;verticalAlign=middle;whiteSpace=wrap;rounded=0;" parent="1" vertex="1">
          <mxGeometry x="590" y="80" width="30" height="20" as="geometry" />
        </mxCell>
        <mxCell id="dpYt7c4uCdBiY0Gb-pTL-237" value="i: row" style="text;html=1;align=left;verticalAlign=middle;whiteSpace=wrap;rounded=0;" parent="1" vertex="1">
          <mxGeometry x="590" y="100" width="40" height="20" as="geometry" />
        </mxCell>
        <mxCell id="dpYt7c4uCdBiY0Gb-pTL-238" value="j: col" style="text;html=1;align=left;verticalAlign=middle;whiteSpace=wrap;rounded=0;" parent="1" vertex="1">
          <mxGeometry x="590" y="120" width="40" height="20" as="geometry" />
        </mxCell>
        <mxCell id="Sd5EhCs27YEQ4jNmECt6-4" value="" style="rounded=0;whiteSpace=wrap;html=1;fillColor=#1ba1e2;fontColor=#ffffff;strokeColor=none;" vertex="1" parent="1">
          <mxGeometry x="500" y="600" width="20" height="40" as="geometry" />
        </mxCell>
        <mxCell id="Sd5EhCs27YEQ4jNmECt6-5" value="" style="rounded=0;whiteSpace=wrap;html=1;fillColor=#a20025;fontColor=#ffffff;strokeColor=none;" vertex="1" parent="1">
          <mxGeometry x="500" y="600" width="40" height="20" as="geometry" />
        </mxCell>
        <mxCell id="Sd5EhCs27YEQ4jNmECt6-6" value="" style="rounded=0;whiteSpace=wrap;html=1;fillColor=#60a917;fontColor=#ffffff;strokeColor=none;" vertex="1" parent="1">
          <mxGeometry x="500" y="600" width="20" height="20" as="geometry" />
        </mxCell>
        <mxCell id="Sd5EhCs27YEQ4jNmECt6-7" value="k = 2" style="text;html=1;align=left;verticalAlign=middle;whiteSpace=wrap;rounded=0;" vertex="1" parent="1">
          <mxGeometry x="480" y="480" width="40" height="20" as="geometry" />
        </mxCell>
        <mxCell id="Sd5EhCs27YEQ4jNmECt6-8" value="I = [3]" style="text;html=1;align=left;verticalAlign=middle;whiteSpace=wrap;rounded=0;" vertex="1" parent="1">
          <mxGeometry x="480" y="500" width="60" height="20" as="geometry" />
        </mxCell>
        <mxCell id="Sd5EhCs27YEQ4jNmECt6-9" value="j = [3]" style="text;html=1;align=left;verticalAlign=middle;whiteSpace=wrap;rounded=0;" vertex="1" parent="1">
          <mxGeometry x="480" y="520" width="60" height="20" as="geometry" />
        </mxCell>
        <mxCell id="Sd5EhCs27YEQ4jNmECt6-10" value="1" style="text;html=1;align=center;verticalAlign=middle;whiteSpace=wrap;rounded=0;" vertex="1" parent="1">
          <mxGeometry x="480" y="580" width="20" height="20" as="geometry" />
        </mxCell>
        <mxCell id="Sd5EhCs27YEQ4jNmECt6-11" value="2" style="text;html=1;align=center;verticalAlign=middle;whiteSpace=wrap;rounded=0;" vertex="1" parent="1">
          <mxGeometry x="500" y="580" width="20" height="20" as="geometry" />
        </mxCell>
        <mxCell id="Sd5EhCs27YEQ4jNmECt6-12" value="3" style="text;html=1;align=center;verticalAlign=middle;whiteSpace=wrap;rounded=0;" vertex="1" parent="1">
          <mxGeometry x="520" y="580" width="20" height="20" as="geometry" />
        </mxCell>
        <mxCell id="Sd5EhCs27YEQ4jNmECt6-13" value="4" style="text;html=1;align=center;verticalAlign=middle;whiteSpace=wrap;rounded=0;" vertex="1" parent="1">
          <mxGeometry x="480" y="600" width="20" height="20" as="geometry" />
        </mxCell>
        <mxCell id="Sd5EhCs27YEQ4jNmECt6-14" value="5" style="text;html=1;align=center;verticalAlign=middle;whiteSpace=wrap;rounded=0;" vertex="1" parent="1">
          <mxGeometry x="500" y="600" width="20" height="20" as="geometry" />
        </mxCell>
        <mxCell id="Sd5EhCs27YEQ4jNmECt6-15" value="6" style="text;html=1;align=center;verticalAlign=middle;whiteSpace=wrap;rounded=0;" vertex="1" parent="1">
          <mxGeometry x="520" y="600" width="20" height="20" as="geometry" />
        </mxCell>
        <mxCell id="Sd5EhCs27YEQ4jNmECt6-16" value="7" style="text;html=1;align=center;verticalAlign=middle;whiteSpace=wrap;rounded=0;" vertex="1" parent="1">
          <mxGeometry x="480" y="620" width="20" height="20" as="geometry" />
        </mxCell>
        <mxCell id="Sd5EhCs27YEQ4jNmECt6-17" value="8" style="text;html=1;align=center;verticalAlign=middle;whiteSpace=wrap;rounded=0;" vertex="1" parent="1">
          <mxGeometry x="500" y="620" width="20" height="20" as="geometry" />
        </mxCell>
        <mxCell id="Sd5EhCs27YEQ4jNmECt6-18" value="9" style="text;html=1;align=center;verticalAlign=middle;whiteSpace=wrap;rounded=0;" vertex="1" parent="1">
          <mxGeometry x="520" y="620" width="20" height="20" as="geometry" />
        </mxCell>
        <mxCell id="Sd5EhCs27YEQ4jNmECt6-38" value="" style="endArrow=none;html=1;rounded=0;" edge="1" parent="1">
          <mxGeometry width="50" height="50" relative="1" as="geometry">
            <mxPoint x="460" y="880" as="sourcePoint" />
            <mxPoint x="460" y="480" as="targetPoint" />
          </mxGeometry>
        </mxCell>
        <mxCell id="Sd5EhCs27YEQ4jNmECt6-54" value="L = I + L&lt;sub&gt;A&lt;/sub&gt;" style="text;html=1;align=left;verticalAlign=middle;whiteSpace=wrap;rounded=0;" vertex="1" parent="1">
          <mxGeometry x="280" y="880" width="60" height="20" as="geometry" />
        </mxCell>
        <mxCell id="Sd5EhCs27YEQ4jNmECt6-55" value="U = D&lt;sub&gt;A&lt;/sub&gt;&amp;nbsp;+ U&lt;sub&gt;A&lt;/sub&gt;" style="text;html=1;align=left;verticalAlign=middle;whiteSpace=wrap;rounded=0;" vertex="1" parent="1">
          <mxGeometry x="280" y="900" width="80" height="20" as="geometry" />
        </mxCell>
        <mxCell id="Sd5EhCs27YEQ4jNmECt6-56" value="k = 1" style="text;html=1;align=left;verticalAlign=middle;whiteSpace=wrap;rounded=0;" vertex="1" parent="1">
          <mxGeometry x="280" y="920" width="30" height="20" as="geometry" />
        </mxCell>
        <mxCell id="Sd5EhCs27YEQ4jNmECt6-57" value="i = 2" style="text;html=1;align=left;verticalAlign=middle;whiteSpace=wrap;rounded=0;" vertex="1" parent="1">
          <mxGeometry x="280" y="940" width="30" height="20" as="geometry" />
        </mxCell>
        <mxCell id="Sd5EhCs27YEQ4jNmECt6-58" value="l&lt;sub&gt;ik&lt;/sub&gt; =l&lt;sub&gt;21 &lt;/sub&gt;=&amp;nbsp;l&lt;sub&gt;21&lt;/sub&gt;/u&lt;sub&gt;11&lt;/sub&gt;= 4/1" style="text;html=1;align=left;verticalAlign=middle;whiteSpace=wrap;rounded=0;" vertex="1" parent="1">
          <mxGeometry x="280" y="960" width="160" height="20" as="geometry" />
        </mxCell>
        <mxCell id="Sd5EhCs27YEQ4jNmECt6-60" value="U&lt;sub&gt;2,2&lt;/sub&gt;=U&lt;sub&gt;2,2&lt;/sub&gt;-U&lt;sub&gt;1,2 &lt;/sub&gt;l&lt;sub&gt;21&lt;/sub&gt;=5-2*4=-3" style="text;html=1;align=left;verticalAlign=middle;whiteSpace=wrap;rounded=0;" vertex="1" parent="1">
          <mxGeometry x="280" y="980" width="200" height="20" as="geometry" />
        </mxCell>
        <mxCell id="Sd5EhCs27YEQ4jNmECt6-61" value="U&lt;sub&gt;2,3&lt;/sub&gt;=U&lt;sub&gt;2,3&lt;/sub&gt;-U&lt;sub&gt;1,3 &lt;/sub&gt;l&lt;sub&gt;21&lt;/sub&gt;=6-3*4=-6" style="text;html=1;align=left;verticalAlign=middle;whiteSpace=wrap;rounded=0;" vertex="1" parent="1">
          <mxGeometry x="280" y="1020" width="200" height="20" as="geometry" />
        </mxCell>
        <mxCell id="Sd5EhCs27YEQ4jNmECt6-62" value="j = 2" style="text;html=1;align=left;verticalAlign=middle;whiteSpace=wrap;rounded=0;" vertex="1" parent="1">
          <mxGeometry x="280" y="1040" width="200" height="20" as="geometry" />
        </mxCell>
        <mxCell id="Sd5EhCs27YEQ4jNmECt6-64" value="i = 3" style="text;html=1;align=left;verticalAlign=middle;whiteSpace=wrap;rounded=0;" vertex="1" parent="1">
          <mxGeometry x="280" y="1000" width="200" height="20" as="geometry" />
        </mxCell>
        <mxCell id="Sd5EhCs27YEQ4jNmECt6-66" value="L&lt;sub&gt;3,2&lt;/sub&gt; = L&lt;sub&gt;3,2&lt;/sub&gt;&amp;nbsp;- L&lt;sub&gt;3,1&lt;/sub&gt;&amp;nbsp;u&lt;sub&gt;12&lt;/sub&gt;=8-7*2=-6" style="text;html=1;align=left;verticalAlign=middle;whiteSpace=wrap;rounded=0;" vertex="1" parent="1">
          <mxGeometry x="280" y="1060" width="200" height="20" as="geometry" />
        </mxCell>
        <mxCell id="Sd5EhCs27YEQ4jNmECt6-67" value="k = 2" style="text;html=1;align=left;verticalAlign=middle;whiteSpace=wrap;rounded=0;" vertex="1" parent="1">
          <mxGeometry x="460" y="880" width="30" height="20" as="geometry" />
        </mxCell>
        <mxCell id="Sd5EhCs27YEQ4jNmECt6-68" value="i = 3" style="text;html=1;align=left;verticalAlign=middle;whiteSpace=wrap;rounded=0;" vertex="1" parent="1">
          <mxGeometry x="460" y="900" width="30" height="20" as="geometry" />
        </mxCell>
        <mxCell id="Sd5EhCs27YEQ4jNmECt6-69" value="l&lt;sub&gt;ik&lt;/sub&gt; =l&lt;sub&gt;32 &lt;/sub&gt;=&amp;nbsp;l&lt;sub&gt;32&lt;/sub&gt;/u&lt;sub&gt;22&lt;/sub&gt;= -6/-3=2" style="text;html=1;align=left;verticalAlign=middle;whiteSpace=wrap;rounded=0;" vertex="1" parent="1">
          <mxGeometry x="460" y="920" width="160" height="20" as="geometry" />
        </mxCell>
        <mxCell id="Sd5EhCs27YEQ4jNmECt6-70" value="1" style="text;html=1;align=center;verticalAlign=middle;whiteSpace=wrap;rounded=0;" vertex="1" parent="1">
          <mxGeometry x="480" y="660" width="20" height="20" as="geometry" />
        </mxCell>
        <mxCell id="Sd5EhCs27YEQ4jNmECt6-71" value="0" style="text;html=1;align=center;verticalAlign=middle;whiteSpace=wrap;rounded=0;" vertex="1" parent="1">
          <mxGeometry x="500" y="660" width="20" height="20" as="geometry" />
        </mxCell>
        <mxCell id="Sd5EhCs27YEQ4jNmECt6-72" value="0" style="text;html=1;align=center;verticalAlign=middle;whiteSpace=wrap;rounded=0;" vertex="1" parent="1">
          <mxGeometry x="520" y="660" width="20" height="20" as="geometry" />
        </mxCell>
        <mxCell id="Sd5EhCs27YEQ4jNmECt6-73" value="4" style="text;html=1;align=center;verticalAlign=middle;whiteSpace=wrap;rounded=0;" vertex="1" parent="1">
          <mxGeometry x="480" y="680" width="20" height="20" as="geometry" />
        </mxCell>
        <mxCell id="Sd5EhCs27YEQ4jNmECt6-74" value="1" style="text;html=1;align=center;verticalAlign=middle;whiteSpace=wrap;rounded=0;" vertex="1" parent="1">
          <mxGeometry x="500" y="680" width="20" height="20" as="geometry" />
        </mxCell>
        <mxCell id="Sd5EhCs27YEQ4jNmECt6-75" value="0" style="text;html=1;align=center;verticalAlign=middle;whiteSpace=wrap;rounded=0;" vertex="1" parent="1">
          <mxGeometry x="520" y="680" width="20" height="20" as="geometry" />
        </mxCell>
        <mxCell id="Sd5EhCs27YEQ4jNmECt6-76" value="7" style="text;html=1;align=center;verticalAlign=middle;whiteSpace=wrap;rounded=0;" vertex="1" parent="1">
          <mxGeometry x="480" y="700" width="20" height="20" as="geometry" />
        </mxCell>
        <mxCell id="Sd5EhCs27YEQ4jNmECt6-77" value="2" style="text;html=1;align=center;verticalAlign=middle;whiteSpace=wrap;rounded=0;" vertex="1" parent="1">
          <mxGeometry x="500" y="700" width="20" height="20" as="geometry" />
        </mxCell>
        <mxCell id="Sd5EhCs27YEQ4jNmECt6-78" value="1" style="text;html=1;align=center;verticalAlign=middle;whiteSpace=wrap;rounded=0;" vertex="1" parent="1">
          <mxGeometry x="520" y="700" width="20" height="20" as="geometry" />
        </mxCell>
        <mxCell id="Sd5EhCs27YEQ4jNmECt6-79" value="1" style="text;html=1;align=center;verticalAlign=middle;whiteSpace=wrap;rounded=0;" vertex="1" parent="1">
          <mxGeometry x="480" y="740" width="20" height="20" as="geometry" />
        </mxCell>
        <mxCell id="Sd5EhCs27YEQ4jNmECt6-80" value="2" style="text;html=1;align=center;verticalAlign=middle;whiteSpace=wrap;rounded=0;" vertex="1" parent="1">
          <mxGeometry x="500" y="740" width="20" height="20" as="geometry" />
        </mxCell>
        <mxCell id="Sd5EhCs27YEQ4jNmECt6-81" value="3" style="text;html=1;align=center;verticalAlign=middle;whiteSpace=wrap;rounded=0;" vertex="1" parent="1">
          <mxGeometry x="520" y="740" width="20" height="20" as="geometry" />
        </mxCell>
        <mxCell id="Sd5EhCs27YEQ4jNmECt6-82" value="0" style="text;html=1;align=center;verticalAlign=middle;whiteSpace=wrap;rounded=0;" vertex="1" parent="1">
          <mxGeometry x="480" y="760" width="20" height="20" as="geometry" />
        </mxCell>
        <mxCell id="Sd5EhCs27YEQ4jNmECt6-83" value="-3" style="text;html=1;align=center;verticalAlign=middle;whiteSpace=wrap;rounded=0;" vertex="1" parent="1">
          <mxGeometry x="500" y="760" width="20" height="20" as="geometry" />
        </mxCell>
        <mxCell id="Sd5EhCs27YEQ4jNmECt6-84" value="-6" style="text;html=1;align=center;verticalAlign=middle;whiteSpace=wrap;rounded=0;" vertex="1" parent="1">
          <mxGeometry x="520" y="760" width="20" height="20" as="geometry" />
        </mxCell>
        <mxCell id="Sd5EhCs27YEQ4jNmECt6-85" value="0" style="text;html=1;align=center;verticalAlign=middle;whiteSpace=wrap;rounded=0;" vertex="1" parent="1">
          <mxGeometry x="480" y="780" width="20" height="20" as="geometry" />
        </mxCell>
        <mxCell id="Sd5EhCs27YEQ4jNmECt6-86" value="0" style="text;html=1;align=center;verticalAlign=middle;whiteSpace=wrap;rounded=0;" vertex="1" parent="1">
          <mxGeometry x="500" y="780" width="20" height="20" as="geometry" />
        </mxCell>
        <mxCell id="Sd5EhCs27YEQ4jNmECt6-87" value="21" style="text;html=1;align=center;verticalAlign=middle;whiteSpace=wrap;rounded=0;" vertex="1" parent="1">
          <mxGeometry x="520" y="780" width="20" height="20" as="geometry" />
        </mxCell>
        <mxCell id="Sd5EhCs27YEQ4jNmECt6-88" value="U&lt;sub&gt;3,3&lt;/sub&gt; = U&lt;sub&gt;3,3&lt;/sub&gt; - U&lt;sub&gt;2,3&lt;/sub&gt; l&lt;sub&gt;32&lt;/sub&gt;=21" style="text;html=1;align=left;verticalAlign=middle;whiteSpace=wrap;rounded=0;" vertex="1" parent="1">
          <mxGeometry x="460" y="940" width="140" height="20" as="geometry" />
        </mxCell>
        <mxCell id="Sd5EhCs27YEQ4jNmECt6-89" value="i = 3" style="text;html=1;align=left;verticalAlign=middle;whiteSpace=wrap;rounded=0;" vertex="1" parent="1">
          <mxGeometry x="460" y="960" width="140" height="20" as="geometry" />
        </mxCell>
      </root>
    </mxGraphModel>
  </diagram>
</mxfile>
